<mxfile host="app.diagrams.net" agent="Mozilla/5.0 (Windows NT 10.0; Win64; x64) AppleWebKit/537.36 (KHTML, like Gecko) Chrome/131.0.0.0 Safari/537.36 OPR/116.0.0.0" version="26.0.13">
  <diagram name="Page-1" id="LbLycAPrIAbLjeIkuarc">
    <mxGraphModel dx="1440" dy="767" grid="1" gridSize="10" guides="1" tooltips="1" connect="1" arrows="1" fold="1" page="1" pageScale="1" pageWidth="850" pageHeight="1100" background="#ffffff" math="0" shadow="0">
      <root>
        <mxCell id="0" />
        <mxCell id="1" parent="0" />
        <mxCell id="tnUQF0HuI46dtCZ0G1k2-1" value="&lt;strong data-end=&quot;1207&quot; data-start=&quot;1199&quot;&gt;User&lt;/strong&gt;" style="rounded=0;whiteSpace=wrap;html=1;labelBackgroundColor=none;fillColor=#B2C9AB;strokeColor=#788AA3;fontColor=#46495D;" vertex="1" parent="1">
          <mxGeometry x="365" y="270" width="120" height="60" as="geometry" />
        </mxCell>
        <mxCell id="tnUQF0HuI46dtCZ0G1k2-2" value="&lt;strong data-end=&quot;1283&quot; data-start=&quot;1273&quot;&gt;Bayong&lt;/strong&gt;" style="rounded=0;whiteSpace=wrap;html=1;labelBackgroundColor=none;fillColor=#B2C9AB;strokeColor=#788AA3;fontColor=#46495D;" vertex="1" parent="1">
          <mxGeometry x="365" y="540" width="120" height="60" as="geometry" />
        </mxCell>
        <mxCell id="tnUQF0HuI46dtCZ0G1k2-3" value="&lt;strong data-end=&quot;1338&quot; data-start=&quot;1325&quot;&gt;Materials&lt;/strong&gt;" style="rounded=0;whiteSpace=wrap;html=1;labelBackgroundColor=none;fillColor=#B2C9AB;strokeColor=#788AA3;fontColor=#46495D;" vertex="1" parent="1">
          <mxGeometry x="570" y="700" width="120" height="60" as="geometry" />
        </mxCell>
        <mxCell id="tnUQF0HuI46dtCZ0G1k2-4" value="&lt;b&gt;Production Process&lt;/b&gt;" style="rounded=0;whiteSpace=wrap;html=1;labelBackgroundColor=none;fillColor=#B2C9AB;strokeColor=#788AA3;fontColor=#46495D;" vertex="1" parent="1">
          <mxGeometry x="40" y="540" width="120" height="60" as="geometry" />
        </mxCell>
        <mxCell id="tnUQF0HuI46dtCZ0G1k2-5" value="&lt;strong data-end=&quot;1459&quot; data-start=&quot;1446&quot;&gt;Inventory&lt;/strong&gt;" style="rounded=0;whiteSpace=wrap;html=1;labelBackgroundColor=none;fillColor=#B2C9AB;strokeColor=#788AA3;fontColor=#46495D;" vertex="1" parent="1">
          <mxGeometry x="160" y="700" width="120" height="60" as="geometry" />
        </mxCell>
        <mxCell id="tnUQF0HuI46dtCZ0G1k2-6" value="&lt;strong data-end=&quot;1512&quot; data-start=&quot;1501&quot;&gt;Reports&lt;/strong&gt;" style="rounded=0;whiteSpace=wrap;html=1;labelBackgroundColor=none;fillColor=#B2C9AB;strokeColor=#788AA3;fontColor=#46495D;" vertex="1" parent="1">
          <mxGeometry x="560" y="390" width="120" height="60" as="geometry" />
        </mxCell>
        <mxCell id="tnUQF0HuI46dtCZ0G1k2-7" value="Manages" style="rhombus;whiteSpace=wrap;html=1;labelBackgroundColor=none;fillColor=#B2C9AB;strokeColor=#788AA3;fontColor=#46495D;" vertex="1" parent="1">
          <mxGeometry x="385" y="400" width="80" height="80" as="geometry" />
        </mxCell>
        <mxCell id="tnUQF0HuI46dtCZ0G1k2-8" value="Tracks" style="rhombus;whiteSpace=wrap;html=1;labelBackgroundColor=none;fillColor=#B2C9AB;strokeColor=#788AA3;fontColor=#46495D;" vertex="1" parent="1">
          <mxGeometry x="230" y="530" width="80" height="80" as="geometry" />
        </mxCell>
        <mxCell id="tnUQF0HuI46dtCZ0G1k2-9" value="Uses" style="rhombus;whiteSpace=wrap;html=1;labelBackgroundColor=none;fillColor=#B2C9AB;strokeColor=#788AA3;fontColor=#46495D;" vertex="1" parent="1">
          <mxGeometry x="590" y="530" width="80" height="80" as="geometry" />
        </mxCell>
        <mxCell id="tnUQF0HuI46dtCZ0G1k2-11" value="Stores" style="rhombus;whiteSpace=wrap;html=1;labelBackgroundColor=none;fillColor=#B2C9AB;strokeColor=#788AA3;fontColor=#46495D;" vertex="1" parent="1">
          <mxGeometry x="385" y="690" width="80" height="80" as="geometry" />
        </mxCell>
        <mxCell id="tnUQF0HuI46dtCZ0G1k2-12" value="Generate" style="rhombus;whiteSpace=wrap;html=1;labelBackgroundColor=none;fillColor=#B2C9AB;strokeColor=#788AA3;fontColor=#46495D;" vertex="1" parent="1">
          <mxGeometry x="580" y="260" width="80" height="80" as="geometry" />
        </mxCell>
        <mxCell id="tnUQF0HuI46dtCZ0G1k2-15" value="Name" style="ellipse;whiteSpace=wrap;html=1;align=center;labelBackgroundColor=none;fillColor=#B2C9AB;strokeColor=#788AA3;fontColor=#46495D;" vertex="1" parent="1">
          <mxGeometry x="310" y="160" width="100" height="40" as="geometry" />
        </mxCell>
        <mxCell id="tnUQF0HuI46dtCZ0G1k2-16" value="Email" style="ellipse;whiteSpace=wrap;html=1;align=center;labelBackgroundColor=none;fillColor=#B2C9AB;strokeColor=#788AA3;fontColor=#46495D;" vertex="1" parent="1">
          <mxGeometry x="485" y="210" width="100" height="40" as="geometry" />
        </mxCell>
        <mxCell id="tnUQF0HuI46dtCZ0G1k2-17" value="Password" style="ellipse;whiteSpace=wrap;html=1;align=center;labelBackgroundColor=none;fillColor=#B2C9AB;strokeColor=#788AA3;fontColor=#46495D;" vertex="1" parent="1">
          <mxGeometry x="250" y="210" width="100" height="40" as="geometry" />
        </mxCell>
        <mxCell id="tnUQF0HuI46dtCZ0G1k2-19" value="User_ID" style="ellipse;whiteSpace=wrap;html=1;align=center;fontStyle=5;labelBackgroundColor=none;fillColor=#B2C9AB;strokeColor=#788AA3;fontColor=#46495D;" vertex="1" parent="1">
          <mxGeometry x="425" y="160" width="100" height="40" as="geometry" />
        </mxCell>
        <mxCell id="tnUQF0HuI46dtCZ0G1k2-20" value="Design" style="ellipse;whiteSpace=wrap;html=1;align=center;labelBackgroundColor=none;fillColor=#B2C9AB;strokeColor=#788AA3;fontColor=#46495D;" vertex="1" parent="1">
          <mxGeometry x="280" y="620" width="100" height="40" as="geometry" />
        </mxCell>
        <mxCell id="tnUQF0HuI46dtCZ0G1k2-21" value="Size" style="ellipse;whiteSpace=wrap;html=1;align=center;labelBackgroundColor=none;fillColor=#B2C9AB;strokeColor=#788AA3;fontColor=#46495D;" vertex="1" parent="1">
          <mxGeometry x="270" y="480" width="100" height="40" as="geometry" />
        </mxCell>
        <mxCell id="tnUQF0HuI46dtCZ0G1k2-22" value="Quantity" style="ellipse;whiteSpace=wrap;html=1;align=center;labelBackgroundColor=none;fillColor=#B2C9AB;strokeColor=#788AA3;fontColor=#46495D;" vertex="1" parent="1">
          <mxGeometry x="485" y="620" width="100" height="40" as="geometry" />
        </mxCell>
        <mxCell id="tnUQF0HuI46dtCZ0G1k2-23" value="&lt;strong data-end=&quot;2866&quot; data-start=&quot;2853&quot;&gt;Bayong_ID&lt;/strong&gt;" style="ellipse;whiteSpace=wrap;html=1;align=center;fontStyle=4;labelBackgroundColor=none;fillColor=#B2C9AB;strokeColor=#788AA3;fontColor=#46495D;" vertex="1" parent="1">
          <mxGeometry x="485" y="480" width="100" height="40" as="geometry" />
        </mxCell>
        <mxCell id="tnUQF0HuI46dtCZ0G1k2-24" value="Quantity Available" style="ellipse;whiteSpace=wrap;html=1;align=center;labelBackgroundColor=none;fillColor=#B2C9AB;strokeColor=#788AA3;fontColor=#46495D;" vertex="1" parent="1">
          <mxGeometry x="690" y="810" width="100" height="40" as="geometry" />
        </mxCell>
        <mxCell id="tnUQF0HuI46dtCZ0G1k2-26" value="Type " style="ellipse;whiteSpace=wrap;html=1;align=center;labelBackgroundColor=none;fillColor=#B2C9AB;strokeColor=#788AA3;fontColor=#46495D;" vertex="1" parent="1">
          <mxGeometry x="485" y="810" width="100" height="40" as="geometry" />
        </mxCell>
        <mxCell id="tnUQF0HuI46dtCZ0G1k2-27" value="&lt;strong data-end=&quot;2983&quot; data-start=&quot;2968&quot;&gt;Material_ID&lt;/strong&gt;" style="ellipse;whiteSpace=wrap;html=1;align=center;fontStyle=4;labelBackgroundColor=none;fillColor=#B2C9AB;strokeColor=#788AA3;fontColor=#46495D;" vertex="1" parent="1">
          <mxGeometry x="580" y="870" width="100" height="40" as="geometry" />
        </mxCell>
        <mxCell id="tnUQF0HuI46dtCZ0G1k2-28" style="edgeStyle=orthogonalEdgeStyle;rounded=0;orthogonalLoop=1;jettySize=auto;html=1;exitX=0.5;exitY=1;exitDx=0;exitDy=0;labelBackgroundColor=none;strokeColor=#788AA3;fontColor=default;" edge="1" parent="1" source="tnUQF0HuI46dtCZ0G1k2-27" target="tnUQF0HuI46dtCZ0G1k2-27">
          <mxGeometry relative="1" as="geometry" />
        </mxCell>
        <mxCell id="tnUQF0HuI46dtCZ0G1k2-29" value="Stage " style="ellipse;whiteSpace=wrap;html=1;align=center;labelBackgroundColor=none;fillColor=#B2C9AB;strokeColor=#788AA3;fontColor=#46495D;" vertex="1" parent="1">
          <mxGeometry y="440" width="100" height="40" as="geometry" />
        </mxCell>
        <mxCell id="tnUQF0HuI46dtCZ0G1k2-30" value="Time Required" style="ellipse;whiteSpace=wrap;html=1;align=center;labelBackgroundColor=none;fillColor=#B2C9AB;strokeColor=#788AA3;fontColor=#46495D;" vertex="1" parent="1">
          <mxGeometry x="150" y="480" width="100" height="40" as="geometry" />
        </mxCell>
        <mxCell id="tnUQF0HuI46dtCZ0G1k2-31" value="&lt;strong data-end=&quot;3151&quot; data-start=&quot;3137&quot;&gt;Process_ID&lt;/strong&gt;" style="ellipse;whiteSpace=wrap;html=1;align=center;fontStyle=4;labelBackgroundColor=none;fillColor=#B2C9AB;strokeColor=#788AA3;fontColor=#46495D;" vertex="1" parent="1">
          <mxGeometry x="120" y="400" width="100" height="40" as="geometry" />
        </mxCell>
        <mxCell id="tnUQF0HuI46dtCZ0G1k2-32" value="Usage Rate " style="ellipse;whiteSpace=wrap;html=1;align=center;labelBackgroundColor=none;fillColor=#B2C9AB;strokeColor=#788AA3;fontColor=#46495D;" vertex="1" parent="1">
          <mxGeometry x="280" y="790" width="100" height="40" as="geometry" />
        </mxCell>
        <mxCell id="tnUQF0HuI46dtCZ0G1k2-33" value="Stock Level " style="ellipse;whiteSpace=wrap;html=1;align=center;labelBackgroundColor=none;fillColor=#B2C9AB;strokeColor=#788AA3;fontColor=#46495D;" vertex="1" parent="1">
          <mxGeometry x="60" y="790" width="100" height="40" as="geometry" />
        </mxCell>
        <mxCell id="tnUQF0HuI46dtCZ0G1k2-34" value="&lt;strong data-end=&quot;2983&quot; data-start=&quot;2968&quot;&gt;Inventory_ID&lt;/strong&gt;" style="ellipse;whiteSpace=wrap;html=1;align=center;fontStyle=4;labelBackgroundColor=none;fillColor=#B2C9AB;strokeColor=#788AA3;fontColor=#46495D;" vertex="1" parent="1">
          <mxGeometry x="170" y="850" width="100" height="40" as="geometry" />
        </mxCell>
        <mxCell id="tnUQF0HuI46dtCZ0G1k2-36" value="&lt;strong data-end=&quot;3390&quot; data-start=&quot;3377&quot;&gt;Report_ID&lt;/strong&gt;" style="ellipse;whiteSpace=wrap;html=1;align=center;fontStyle=5;labelBackgroundColor=none;fillColor=#B2C9AB;strokeColor=#788AA3;fontColor=#46495D;" vertex="1" parent="1">
          <mxGeometry x="750" y="400" width="100" height="40" as="geometry" />
        </mxCell>
        <mxCell id="tnUQF0HuI46dtCZ0G1k2-37" value="Date Generated" style="ellipse;whiteSpace=wrap;html=1;align=center;labelBackgroundColor=none;fillColor=#B2C9AB;strokeColor=#788AA3;fontColor=#46495D;" vertex="1" parent="1">
          <mxGeometry x="710" y="350" width="100" height="40" as="geometry" />
        </mxCell>
        <mxCell id="tnUQF0HuI46dtCZ0G1k2-38" value="Type " style="ellipse;whiteSpace=wrap;html=1;align=center;labelBackgroundColor=none;fillColor=#B2C9AB;strokeColor=#788AA3;fontColor=#46495D;" vertex="1" parent="1">
          <mxGeometry x="710" y="450" width="100" height="40" as="geometry" />
        </mxCell>
        <mxCell id="tnUQF0HuI46dtCZ0G1k2-39" value="" style="endArrow=none;html=1;rounded=0;entryX=0.5;entryY=0;entryDx=0;entryDy=0;labelBackgroundColor=none;strokeColor=#788AA3;fontColor=default;" edge="1" parent="1" target="tnUQF0HuI46dtCZ0G1k2-1">
          <mxGeometry relative="1" as="geometry">
            <mxPoint x="345" y="240" as="sourcePoint" />
            <mxPoint x="505" y="240" as="targetPoint" />
          </mxGeometry>
        </mxCell>
        <mxCell id="tnUQF0HuI46dtCZ0G1k2-40" value="" style="endArrow=none;html=1;rounded=0;entryX=0.5;entryY=0;entryDx=0;entryDy=0;exitX=0.5;exitY=1;exitDx=0;exitDy=0;labelBackgroundColor=none;strokeColor=#788AA3;fontColor=default;" edge="1" parent="1" source="tnUQF0HuI46dtCZ0G1k2-15" target="tnUQF0HuI46dtCZ0G1k2-1">
          <mxGeometry relative="1" as="geometry">
            <mxPoint x="355" y="210" as="sourcePoint" />
            <mxPoint x="435" y="240" as="targetPoint" />
          </mxGeometry>
        </mxCell>
        <mxCell id="tnUQF0HuI46dtCZ0G1k2-42" value="" style="endArrow=none;html=1;rounded=0;entryX=0.5;entryY=0;entryDx=0;entryDy=0;exitX=0.5;exitY=1;exitDx=0;exitDy=0;labelBackgroundColor=none;strokeColor=#788AA3;fontColor=default;" edge="1" parent="1" source="tnUQF0HuI46dtCZ0G1k2-19" target="tnUQF0HuI46dtCZ0G1k2-1">
          <mxGeometry relative="1" as="geometry">
            <mxPoint x="440" y="210" as="sourcePoint" />
            <mxPoint x="505" y="280" as="targetPoint" />
          </mxGeometry>
        </mxCell>
        <mxCell id="tnUQF0HuI46dtCZ0G1k2-43" value="" style="endArrow=none;html=1;rounded=0;entryX=0.5;entryY=0;entryDx=0;entryDy=0;exitX=0;exitY=0.5;exitDx=0;exitDy=0;labelBackgroundColor=none;strokeColor=#788AA3;fontColor=default;" edge="1" parent="1" source="tnUQF0HuI46dtCZ0G1k2-16" target="tnUQF0HuI46dtCZ0G1k2-1">
          <mxGeometry relative="1" as="geometry">
            <mxPoint x="485" y="210" as="sourcePoint" />
            <mxPoint x="435" y="280" as="targetPoint" />
          </mxGeometry>
        </mxCell>
        <mxCell id="tnUQF0HuI46dtCZ0G1k2-44" value="" style="endArrow=none;html=1;rounded=0;entryX=1;entryY=0.5;entryDx=0;entryDy=0;exitX=0.317;exitY=0.989;exitDx=0;exitDy=0;exitPerimeter=0;labelBackgroundColor=none;strokeColor=#788AA3;fontColor=default;" edge="1" parent="1" source="tnUQF0HuI46dtCZ0G1k2-37" target="tnUQF0HuI46dtCZ0G1k2-6">
          <mxGeometry relative="1" as="geometry">
            <mxPoint x="740" y="360" as="sourcePoint" />
            <mxPoint x="690" y="430" as="targetPoint" />
          </mxGeometry>
        </mxCell>
        <mxCell id="tnUQF0HuI46dtCZ0G1k2-45" value="" style="endArrow=none;html=1;rounded=0;entryX=1;entryY=0.5;entryDx=0;entryDy=0;labelBackgroundColor=none;strokeColor=#788AA3;fontColor=default;" edge="1" parent="1" source="tnUQF0HuI46dtCZ0G1k2-36" target="tnUQF0HuI46dtCZ0G1k2-6">
          <mxGeometry relative="1" as="geometry">
            <mxPoint x="752" y="400" as="sourcePoint" />
            <mxPoint x="690" y="430" as="targetPoint" />
          </mxGeometry>
        </mxCell>
        <mxCell id="tnUQF0HuI46dtCZ0G1k2-46" value="" style="endArrow=none;html=1;rounded=0;entryX=1;entryY=0.5;entryDx=0;entryDy=0;exitX=0;exitY=0;exitDx=0;exitDy=0;labelBackgroundColor=none;strokeColor=#788AA3;fontColor=default;" edge="1" parent="1" source="tnUQF0HuI46dtCZ0G1k2-38" target="tnUQF0HuI46dtCZ0G1k2-6">
          <mxGeometry relative="1" as="geometry">
            <mxPoint x="760" y="430" as="sourcePoint" />
            <mxPoint x="690" y="430" as="targetPoint" />
          </mxGeometry>
        </mxCell>
        <mxCell id="tnUQF0HuI46dtCZ0G1k2-47" value="" style="endArrow=none;html=1;rounded=0;entryX=1;entryY=0.5;entryDx=0;entryDy=0;exitX=0.25;exitY=0;exitDx=0;exitDy=0;labelBackgroundColor=none;strokeColor=#788AA3;fontColor=default;" edge="1" parent="1" source="tnUQF0HuI46dtCZ0G1k2-2" target="tnUQF0HuI46dtCZ0G1k2-21">
          <mxGeometry relative="1" as="geometry">
            <mxPoint x="405" y="536" as="sourcePoint" />
            <mxPoint x="360" y="500" as="targetPoint" />
          </mxGeometry>
        </mxCell>
        <mxCell id="tnUQF0HuI46dtCZ0G1k2-48" value="" style="endArrow=none;html=1;rounded=0;entryX=0;entryY=0.5;entryDx=0;entryDy=0;exitX=0.75;exitY=0;exitDx=0;exitDy=0;labelBackgroundColor=none;strokeColor=#788AA3;fontColor=default;" edge="1" parent="1" source="tnUQF0HuI46dtCZ0G1k2-2" target="tnUQF0HuI46dtCZ0G1k2-23">
          <mxGeometry relative="1" as="geometry">
            <mxPoint x="465" y="520" as="sourcePoint" />
            <mxPoint x="410" y="480" as="targetPoint" />
          </mxGeometry>
        </mxCell>
        <mxCell id="tnUQF0HuI46dtCZ0G1k2-49" value="" style="endArrow=none;html=1;rounded=0;entryX=0;entryY=0.5;entryDx=0;entryDy=0;exitX=0.5;exitY=1;exitDx=0;exitDy=0;labelBackgroundColor=none;strokeColor=#788AA3;fontColor=default;" edge="1" parent="1" source="tnUQF0HuI46dtCZ0G1k2-2" target="tnUQF0HuI46dtCZ0G1k2-22">
          <mxGeometry relative="1" as="geometry">
            <mxPoint x="435" y="600" as="sourcePoint" />
            <mxPoint x="495" y="560" as="targetPoint" />
          </mxGeometry>
        </mxCell>
        <mxCell id="tnUQF0HuI46dtCZ0G1k2-50" value="" style="endArrow=none;html=1;rounded=0;entryX=1;entryY=0.5;entryDx=0;entryDy=0;exitX=0.5;exitY=1;exitDx=0;exitDy=0;labelBackgroundColor=none;strokeColor=#788AA3;fontColor=default;" edge="1" parent="1" source="tnUQF0HuI46dtCZ0G1k2-2" target="tnUQF0HuI46dtCZ0G1k2-20">
          <mxGeometry relative="1" as="geometry">
            <mxPoint x="435" y="610" as="sourcePoint" />
            <mxPoint x="495" y="650" as="targetPoint" />
          </mxGeometry>
        </mxCell>
        <mxCell id="tnUQF0HuI46dtCZ0G1k2-51" value="" style="endArrow=none;html=1;rounded=0;entryX=0.5;entryY=1;entryDx=0;entryDy=0;exitX=0.5;exitY=0;exitDx=0;exitDy=0;labelBackgroundColor=none;strokeColor=#788AA3;fontColor=default;" edge="1" parent="1" source="tnUQF0HuI46dtCZ0G1k2-4" target="tnUQF0HuI46dtCZ0G1k2-29">
          <mxGeometry relative="1" as="geometry">
            <mxPoint x="115" y="550" as="sourcePoint" />
            <mxPoint x="60" y="510" as="targetPoint" />
          </mxGeometry>
        </mxCell>
        <mxCell id="tnUQF0HuI46dtCZ0G1k2-52" value="" style="endArrow=none;html=1;rounded=0;entryX=0.5;entryY=1;entryDx=0;entryDy=0;exitX=0.5;exitY=0;exitDx=0;exitDy=0;labelBackgroundColor=none;strokeColor=#788AA3;fontColor=default;" edge="1" parent="1" source="tnUQF0HuI46dtCZ0G1k2-4" target="tnUQF0HuI46dtCZ0G1k2-31">
          <mxGeometry relative="1" as="geometry">
            <mxPoint x="100" y="540" as="sourcePoint" />
            <mxPoint x="60" y="490" as="targetPoint" />
          </mxGeometry>
        </mxCell>
        <mxCell id="tnUQF0HuI46dtCZ0G1k2-53" value="" style="endArrow=none;html=1;rounded=0;entryX=0;entryY=0.5;entryDx=0;entryDy=0;exitX=0.5;exitY=0;exitDx=0;exitDy=0;labelBackgroundColor=none;strokeColor=#788AA3;fontColor=default;" edge="1" parent="1" source="tnUQF0HuI46dtCZ0G1k2-4" target="tnUQF0HuI46dtCZ0G1k2-30">
          <mxGeometry relative="1" as="geometry">
            <mxPoint x="110" y="550" as="sourcePoint" />
            <mxPoint x="180" y="450" as="targetPoint" />
          </mxGeometry>
        </mxCell>
        <mxCell id="tnUQF0HuI46dtCZ0G1k2-54" value="" style="endArrow=none;html=1;rounded=0;entryX=0.5;entryY=1;entryDx=0;entryDy=0;exitX=0.5;exitY=0;exitDx=0;exitDy=0;labelBackgroundColor=none;strokeColor=#788AA3;fontColor=default;" edge="1" parent="1" source="tnUQF0HuI46dtCZ0G1k2-34" target="tnUQF0HuI46dtCZ0G1k2-5">
          <mxGeometry relative="1" as="geometry">
            <mxPoint x="435" y="610" as="sourcePoint" />
            <mxPoint x="390" y="650" as="targetPoint" />
          </mxGeometry>
        </mxCell>
        <mxCell id="tnUQF0HuI46dtCZ0G1k2-55" value="" style="endArrow=none;html=1;rounded=0;exitX=0;exitY=0.5;exitDx=0;exitDy=0;labelBackgroundColor=none;strokeColor=#788AA3;fontColor=default;" edge="1" parent="1" source="tnUQF0HuI46dtCZ0G1k2-32">
          <mxGeometry relative="1" as="geometry">
            <mxPoint x="230" y="860" as="sourcePoint" />
            <mxPoint x="220" y="760" as="targetPoint" />
          </mxGeometry>
        </mxCell>
        <mxCell id="tnUQF0HuI46dtCZ0G1k2-56" value="" style="endArrow=none;html=1;rounded=0;exitX=1;exitY=0.5;exitDx=0;exitDy=0;entryX=0.5;entryY=1;entryDx=0;entryDy=0;labelBackgroundColor=none;strokeColor=#788AA3;fontColor=default;" edge="1" parent="1" source="tnUQF0HuI46dtCZ0G1k2-33" target="tnUQF0HuI46dtCZ0G1k2-5">
          <mxGeometry relative="1" as="geometry">
            <mxPoint x="290" y="820" as="sourcePoint" />
            <mxPoint x="230" y="770" as="targetPoint" />
          </mxGeometry>
        </mxCell>
        <mxCell id="tnUQF0HuI46dtCZ0G1k2-57" value="" style="endArrow=none;html=1;rounded=0;exitX=0.5;exitY=0;exitDx=0;exitDy=0;labelBackgroundColor=none;strokeColor=#788AA3;fontColor=default;" edge="1" parent="1" source="tnUQF0HuI46dtCZ0G1k2-27">
          <mxGeometry relative="1" as="geometry">
            <mxPoint x="290" y="820" as="sourcePoint" />
            <mxPoint x="630" y="760" as="targetPoint" />
          </mxGeometry>
        </mxCell>
        <mxCell id="tnUQF0HuI46dtCZ0G1k2-59" value="" style="endArrow=none;html=1;rounded=0;exitX=1;exitY=0.5;exitDx=0;exitDy=0;entryX=0.5;entryY=1;entryDx=0;entryDy=0;labelBackgroundColor=none;strokeColor=#788AA3;fontColor=default;" edge="1" parent="1" source="tnUQF0HuI46dtCZ0G1k2-26" target="tnUQF0HuI46dtCZ0G1k2-3">
          <mxGeometry relative="1" as="geometry">
            <mxPoint x="640" y="880" as="sourcePoint" />
            <mxPoint x="640" y="770" as="targetPoint" />
          </mxGeometry>
        </mxCell>
        <mxCell id="tnUQF0HuI46dtCZ0G1k2-60" value="" style="endArrow=none;html=1;rounded=0;exitX=0;exitY=0.5;exitDx=0;exitDy=0;entryX=0.5;entryY=1;entryDx=0;entryDy=0;labelBackgroundColor=none;strokeColor=#788AA3;fontColor=default;" edge="1" parent="1" source="tnUQF0HuI46dtCZ0G1k2-24" target="tnUQF0HuI46dtCZ0G1k2-3">
          <mxGeometry relative="1" as="geometry">
            <mxPoint x="595" y="840" as="sourcePoint" />
            <mxPoint x="640" y="770" as="targetPoint" />
          </mxGeometry>
        </mxCell>
        <mxCell id="tnUQF0HuI46dtCZ0G1k2-61" value="" style="endArrow=none;html=1;rounded=0;exitX=0.5;exitY=1;exitDx=0;exitDy=0;entryX=0.5;entryY=0;entryDx=0;entryDy=0;labelBackgroundColor=none;strokeColor=#788AA3;fontColor=default;" edge="1" parent="1" source="tnUQF0HuI46dtCZ0G1k2-1" target="tnUQF0HuI46dtCZ0G1k2-7">
          <mxGeometry relative="1" as="geometry">
            <mxPoint x="300" y="470" as="sourcePoint" />
            <mxPoint x="460" y="470" as="targetPoint" />
          </mxGeometry>
        </mxCell>
        <mxCell id="tnUQF0HuI46dtCZ0G1k2-62" value="" style="fontSize=12;html=1;endArrow=ERmany;rounded=0;entryX=0.5;entryY=0;entryDx=0;entryDy=0;exitX=0.5;exitY=1;exitDx=0;exitDy=0;labelBackgroundColor=none;strokeColor=#788AA3;fontColor=default;" edge="1" parent="1" source="tnUQF0HuI46dtCZ0G1k2-7" target="tnUQF0HuI46dtCZ0G1k2-2">
          <mxGeometry width="100" height="100" relative="1" as="geometry">
            <mxPoint x="330" y="520" as="sourcePoint" />
            <mxPoint x="430" y="420" as="targetPoint" />
          </mxGeometry>
        </mxCell>
        <mxCell id="tnUQF0HuI46dtCZ0G1k2-64" value="" style="fontSize=12;html=1;endArrow=ERmany;rounded=0;entryX=1;entryY=0.5;entryDx=0;entryDy=0;exitX=0;exitY=0.5;exitDx=0;exitDy=0;labelBackgroundColor=none;strokeColor=#788AA3;fontColor=default;" edge="1" parent="1" source="tnUQF0HuI46dtCZ0G1k2-9" target="tnUQF0HuI46dtCZ0G1k2-2">
          <mxGeometry width="100" height="100" relative="1" as="geometry">
            <mxPoint x="534.58" y="530" as="sourcePoint" />
            <mxPoint x="534.58" y="590" as="targetPoint" />
          </mxGeometry>
        </mxCell>
        <mxCell id="tnUQF0HuI46dtCZ0G1k2-65" value="" style="fontSize=12;html=1;endArrow=ERmany;rounded=0;entryX=0.5;entryY=0;entryDx=0;entryDy=0;exitX=0.5;exitY=1;exitDx=0;exitDy=0;labelBackgroundColor=none;strokeColor=#788AA3;fontColor=default;" edge="1" parent="1" source="tnUQF0HuI46dtCZ0G1k2-9" target="tnUQF0HuI46dtCZ0G1k2-3">
          <mxGeometry width="100" height="100" relative="1" as="geometry">
            <mxPoint x="600" y="580" as="sourcePoint" />
            <mxPoint x="495" y="580" as="targetPoint" />
          </mxGeometry>
        </mxCell>
        <mxCell id="tnUQF0HuI46dtCZ0G1k2-66" value="" style="endArrow=none;html=1;rounded=0;exitX=1;exitY=0.5;exitDx=0;exitDy=0;entryX=0;entryY=0.5;entryDx=0;entryDy=0;labelBackgroundColor=none;strokeColor=#788AA3;fontColor=default;" edge="1" parent="1" source="tnUQF0HuI46dtCZ0G1k2-4" target="tnUQF0HuI46dtCZ0G1k2-8">
          <mxGeometry relative="1" as="geometry">
            <mxPoint x="435" y="560" as="sourcePoint" />
            <mxPoint x="435" y="630" as="targetPoint" />
          </mxGeometry>
        </mxCell>
        <mxCell id="tnUQF0HuI46dtCZ0G1k2-67" value="" style="fontSize=12;html=1;endArrow=ERmany;rounded=0;entryX=0;entryY=0.5;entryDx=0;entryDy=0;labelBackgroundColor=none;strokeColor=#788AA3;fontColor=default;" edge="1" parent="1" target="tnUQF0HuI46dtCZ0G1k2-2">
          <mxGeometry width="100" height="100" relative="1" as="geometry">
            <mxPoint x="311" y="570" as="sourcePoint" />
            <mxPoint x="435" y="550" as="targetPoint" />
          </mxGeometry>
        </mxCell>
        <mxCell id="tnUQF0HuI46dtCZ0G1k2-68" value="" style="endArrow=none;html=1;rounded=0;entryX=0;entryY=0.5;entryDx=0;entryDy=0;exitX=1;exitY=0.5;exitDx=0;exitDy=0;labelBackgroundColor=none;strokeColor=#788AA3;fontColor=default;" edge="1" parent="1" source="tnUQF0HuI46dtCZ0G1k2-5" target="tnUQF0HuI46dtCZ0G1k2-11">
          <mxGeometry relative="1" as="geometry">
            <mxPoint x="300" y="740" as="sourcePoint" />
            <mxPoint x="335" y="729.58" as="targetPoint" />
          </mxGeometry>
        </mxCell>
        <mxCell id="tnUQF0HuI46dtCZ0G1k2-69" value="" style="fontSize=12;html=1;endArrow=ERmany;rounded=0;entryX=0;entryY=0.5;entryDx=0;entryDy=0;exitX=1;exitY=0.5;exitDx=0;exitDy=0;labelBackgroundColor=none;strokeColor=#788AA3;fontColor=default;" edge="1" parent="1" source="tnUQF0HuI46dtCZ0G1k2-11" target="tnUQF0HuI46dtCZ0G1k2-3">
          <mxGeometry width="100" height="100" relative="1" as="geometry">
            <mxPoint x="640" y="620" as="sourcePoint" />
            <mxPoint x="640" y="710" as="targetPoint" />
          </mxGeometry>
        </mxCell>
        <mxCell id="tnUQF0HuI46dtCZ0G1k2-70" value="" style="fontSize=12;html=1;endArrow=ERmany;rounded=0;entryX=0.5;entryY=0;entryDx=0;entryDy=0;exitX=0.5;exitY=1;exitDx=0;exitDy=0;labelBackgroundColor=none;strokeColor=#788AA3;fontColor=default;" edge="1" parent="1" source="tnUQF0HuI46dtCZ0G1k2-12" target="tnUQF0HuI46dtCZ0G1k2-6">
          <mxGeometry width="100" height="100" relative="1" as="geometry">
            <mxPoint x="534.58" y="330" as="sourcePoint" />
            <mxPoint x="534.58" y="390" as="targetPoint" />
          </mxGeometry>
        </mxCell>
        <mxCell id="tnUQF0HuI46dtCZ0G1k2-71" value="" style="endArrow=none;html=1;rounded=0;exitX=1;exitY=0.5;exitDx=0;exitDy=0;entryX=0;entryY=0.5;entryDx=0;entryDy=0;labelBackgroundColor=none;strokeColor=#788AA3;fontColor=default;" edge="1" parent="1" source="tnUQF0HuI46dtCZ0G1k2-1" target="tnUQF0HuI46dtCZ0G1k2-12">
          <mxGeometry relative="1" as="geometry">
            <mxPoint x="435" y="340" as="sourcePoint" />
            <mxPoint x="435" y="410" as="targetPoint" />
          </mxGeometry>
        </mxCell>
      </root>
    </mxGraphModel>
  </diagram>
</mxfile>
